<?xml version="1.0" encoding="UTF-8" standalone="no"?>
<svg
   xmlns:dc="http://purl.org/dc/elements/1.1/"
   xmlns:cc="http://creativecommons.org/ns#"
   xmlns:rdf="http://www.w3.org/1999/02/22-rdf-syntax-ns#"
   xmlns:svg="http://www.w3.org/2000/svg"
   xmlns="http://www.w3.org/2000/svg"
   xmlns:sodipodi="http://sodipodi.sourceforge.net/DTD/sodipodi-0.dtd"
   xmlns:inkscape="http://www.inkscape.org/namespaces/inkscape"
   version="1.1"
   id="svg2"
   xml:space="preserve"
   width="526.02667"
   height="98.626663"
   viewBox="0 0 526.02667 98.626663"
   sodipodi:docname="LIBR_full_color_logo.eps"><metadata
     id="metadata8"><rdf:RDF><cc:Work
         rdf:about=""><dc:format>image/svg+xml</dc:format><dc:type
           rdf:resource="http://purl.org/dc/dcmitype/StillImage" /></cc:Work></rdf:RDF></metadata><defs
     id="defs6"><clipPath
       clipPathUnits="userSpaceOnUse"
       id="clipPath20"><path
         d="M 95.5117,503.754 C 85.4102,582.73 178.355,688.152 287.516,725.668 244.391,716.68 199.566,699.199 157.926,671.559 11.6836,574.395 -41.3398,371.711 34.3242,315.605 94.3945,271.035 156.195,392.594 265.43,472.172 c 12.422,9.062 24.715,17.027 36.734,24.156 -75.363,-0.644 -196.906,-69.043 -206.6523,7.426"
         id="path18" /></clipPath><linearGradient
       x1="0"
       y1="0"
       x2="1"
       y2="0"
       gradientUnits="userSpaceOnUse"
       gradientTransform="matrix(-13.6619,-218.592,-374.328,23.3953,323.261,513.35)"
       spreadMethod="pad"
       id="linearGradient28"><stop
         style="stop-opacity:1;stop-color:#232763"
         offset="0"
         id="stop22" /><stop
         style="stop-opacity:1;stop-color:#232763"
         offset="0.00005"
         id="stop24" /><stop
         style="stop-opacity:1;stop-color:#8c3ba2"
         offset="1"
         id="stop26" /></linearGradient><clipPath
       clipPathUnits="userSpaceOnUse"
       id="clipPath38"><path
         d="m 359.898,440.238 c -1.238,26.563 -10.742,41.625 -25.464,49.254 -33.95,-18.976 -63.496,-40.844 -83.356,-62.14 -93.543,-100.293 -65.746,-133.789 35.512,-167.586 62.637,-20.95 178.687,-33.235 258.211,17.539 -72.496,-39.66 -175.578,-38.692 -184.903,162.933"
         id="path36" /></clipPath><linearGradient
       x1="0"
       y1="0"
       x2="1"
       y2="0"
       gradientUnits="userSpaceOnUse"
       gradientTransform="matrix(350.923,0,0,-302.959,193.877,509.492)"
       spreadMethod="pad"
       id="linearGradient44"><stop
         style="stop-opacity:1;stop-color:#f14821"
         offset="0"
         id="stop40" /><stop
         style="stop-opacity:1;stop-color:#edee18"
         offset="1"
         id="stop42" /></linearGradient><clipPath
       clipPathUnits="userSpaceOnUse"
       id="clipPath54"><path
         d="m 614.969,640.895 c -63.684,83.906 -174.188,102.507 -259.887,98.277 -23.523,-1.145 -47.113,-6.227 -69.98,-14.223 142.066,30.633 266.211,-31.386 195.703,-130.793 -28.61,-40.308 -97.731,-49.832 -178.942,-98.097 12.477,0 23.688,-1.809 32.832,-6.563 85.477,47.699 199.016,77.043 257.539,32.844 65.325,-49.313 44.754,-144.649 -5.086,-207.582 -12.089,-15.278 -26.457,-27.473 -42.093,-37.434 3.402,1.864 6.769,3.778 10.008,5.789 134.406,83.621 125.257,271.735 59.906,357.782"
         id="path52" /></clipPath><linearGradient
       x1="0"
       y1="0"
       x2="1"
       y2="0"
       gradientUnits="userSpaceOnUse"
       gradientTransform="matrix(-146.823,281.705,357.177,186.159,405.903,253.184)"
       spreadMethod="pad"
       id="linearGradient62"><stop
         style="stop-opacity:1;stop-color:#264389"
         offset="0"
         id="stop56" /><stop
         style="stop-opacity:1;stop-color:#d9f2ef"
         offset="0.99296977"
         id="stop58" /><stop
         style="stop-opacity:1;stop-color:#d9f2ef"
         offset="1"
         id="stop60" /></linearGradient><clipPath
       clipPathUnits="userSpaceOnUse"
       id="clipPath72"><path
         d="M 286.113,725.375 C 176.938,687.855 84.0039,582.41 94.0977,503.469 c 9.7573,-76.473 131.3243,-8.086 206.6293,-7.453 81.207,48.277 150.347,57.812 178.945,98.125 70.156,98.89 -52.402,160.8 -193.559,131.234"
         id="path70" /></clipPath><linearGradient
       x1="0"
       y1="0"
       x2="1"
       y2="0"
       gradientUnits="userSpaceOnUse"
       gradientTransform="matrix(322.001,187.187,147.582,-253.872,50.761,637.642)"
       spreadMethod="pad"
       id="linearGradient80"><stop
         style="stop-opacity:1;stop-color:#bd1c2b"
         offset="0"
         id="stop74" /><stop
         style="stop-opacity:1;stop-color:#bd1c2b"
         offset="0.10691959"
         id="stop76" /><stop
         style="stop-opacity:1;stop-color:#eb048d"
         offset="1"
         id="stop78" /></linearGradient><clipPath
       clipPathUnits="userSpaceOnUse"
       id="clipPath90"><path
         d="m 591.941,522.328 c -58.519,44.195 -172.074,14.867 -257.519,-32.836 14.699,-7.629 24.215,-22.652 25.445,-49.254 9.317,-201.605 112.414,-202.593 184.879,-162.933 15.664,9.961 30.016,22.16 42.137,37.429 49.84,62.918 70.375,158.293 5.058,207.594"
         id="path88" /></clipPath><linearGradient
       x1="0"
       y1="0"
       x2="1"
       y2="0"
       gradientUnits="userSpaceOnUse"
       gradientTransform="matrix(219.198,-114.442,-188.213,-360.497,478.466,617.778)"
       spreadMethod="pad"
       id="linearGradient96"><stop
         style="stop-opacity:1;stop-color:#f14821"
         offset="0"
         id="stop92" /><stop
         style="stop-opacity:1;stop-color:#edee18"
         offset="1"
         id="stop94" /></linearGradient></defs><sodipodi:namedview
     pagecolor="#ffffff"
     bordercolor="#666666"
     borderopacity="1"
     objecttolerance="10"
     gridtolerance="10"
     guidetolerance="10"
     inkscape:pageopacity="0"
     inkscape:pageshadow="2"
     inkscape:window-width="640"
     inkscape:window-height="480"
     id="namedview4" /><g
     id="g10"
     inkscape:groupmode="layer"
     inkscape:label="ink_ext_XXXXXX"
     transform="matrix(1.3333333,0,0,-1.3333333,0,98.626667)"><g
       id="g12"
       transform="scale(0.1)"><g
         id="g14"><g
           id="g16"
           clip-path="url(#clipPath20)"><path
             d="M 95.5117,503.754 C 85.4102,582.73 178.355,688.152 287.516,725.668 244.391,716.68 199.566,699.199 157.926,671.559 11.6836,574.395 -41.3398,371.711 34.3242,315.605 94.3945,271.035 156.195,392.594 265.43,472.172 c 12.422,9.062 24.715,17.027 36.734,24.156 -75.363,-0.644 -196.906,-69.043 -206.6523,7.426"
             style="fill:url(#linearGradient28);fill-opacity:1;fill-rule:nonzero;stroke:none"
             id="path30" /></g></g><g
         id="g32"><g
           id="g34"
           clip-path="url(#clipPath38)"><path
             d="m 359.898,440.238 c -1.238,26.563 -10.742,41.625 -25.464,49.254 -33.95,-18.976 -63.496,-40.844 -83.356,-62.14 -93.543,-100.293 -65.746,-133.789 35.512,-167.586 62.637,-20.95 178.687,-33.235 258.211,17.539 -72.496,-39.66 -175.578,-38.692 -184.903,162.933"
             style="fill:url(#linearGradient44);fill-opacity:1;fill-rule:nonzero;stroke:none"
             id="path46" /></g></g><g
         id="g48"><g
           id="g50"
           clip-path="url(#clipPath54)"><path
             d="m 614.969,640.895 c -63.684,83.906 -174.188,102.507 -259.887,98.277 -23.523,-1.145 -47.113,-6.227 -69.98,-14.223 142.066,30.633 266.211,-31.386 195.703,-130.793 -28.61,-40.308 -97.731,-49.832 -178.942,-98.097 12.477,0 23.688,-1.809 32.832,-6.563 85.477,47.699 199.016,77.043 257.539,32.844 65.325,-49.313 44.754,-144.649 -5.086,-207.582 -12.089,-15.278 -26.457,-27.473 -42.093,-37.434 3.402,1.864 6.769,3.778 10.008,5.789 134.406,83.621 125.257,271.735 59.906,357.782"
             style="fill:url(#linearGradient62);fill-opacity:1;fill-rule:nonzero;stroke:none"
             id="path64" /></g></g><g
         id="g66"><g
           id="g68"
           clip-path="url(#clipPath72)"><path
             d="M 286.113,725.375 C 176.938,687.855 84.0039,582.41 94.0977,503.469 c 9.7573,-76.473 131.3243,-8.086 206.6293,-7.453 81.207,48.277 150.347,57.812 178.945,98.125 70.156,98.89 -52.402,160.8 -193.559,131.234"
             style="fill:url(#linearGradient80);fill-opacity:1;fill-rule:nonzero;stroke:none"
             id="path82" /></g></g><g
         id="g84"><g
           id="g86"
           clip-path="url(#clipPath90)"><path
             d="m 591.941,522.328 c -58.519,44.195 -172.074,14.867 -257.519,-32.836 14.699,-7.629 24.215,-22.652 25.445,-49.254 9.317,-201.605 112.414,-202.593 184.879,-162.933 15.664,9.961 30.016,22.16 42.137,37.429 49.84,62.918 70.375,158.293 5.058,207.594"
             style="fill:url(#linearGradient96);fill-opacity:1;fill-rule:nonzero;stroke:none"
             id="path98" /></g></g><path
         d="m 817.074,125.625 h 21.11 V 21.8555 h 63.148 V 2.10938 H 817.074 V 125.625"
         style="fill:#100f0d;fill-opacity:1;fill-rule:nonzero;stroke:none"
         id="path100" /><path
         d="M 976.305,2.10938 V 13.5859 C 970.145,6.00781 960.699,0.15625 946.969,0.15625 c -17.164,0 -32.274,10.07035 -32.274,28.76955 v 0.3515 c 0,20.1094 15.618,30 36.735,30 10.976,0 18.019,-1.582 25.062,-3.8789 v 2.2969 c 0,12.8906 -7.898,19.9414 -22.32,19.9414 -10.109,0 -17.688,-2.2851 -25.914,-5.8281 l -5.66,17.1172 c 9.949,4.582 19.742,7.7851 34.488,7.7851 26.793,0 39.824,-14.4843 39.824,-39.375 V 2.10938 Z m 0.531,39.53122 c -5.328,2.1094 -12.703,3.711 -20.766,3.711 -13.066,0 -20.773,-5.4766 -20.773,-15 v -0.3711 c 0,-8.8086 7.707,-13.75 17.5,-13.75 13.742,0 24.039,7.9179 24.039,19.5781 v 5.832"
         style="fill:#100f0d;fill-opacity:1;fill-rule:nonzero;stroke:none"
         id="path102" /><path
         d="m 1081.15,95.293 h 20.76 V 2.10938 h -20.76 V 16.582 c -5.83,-8.83981 -14.23,-16.42575 -28.32,-16.42575 -20.42,0 -32.24,14.12895 -32.24,35.83985 V 95.293 h 20.75 V 42.3359 c 0,-14.4648 7.03,-22.7656 19.4,-22.7656 11.99,0 20.41,8.6445 20.41,23.125 V 95.293"
         style="fill:#100f0d;fill-opacity:1;fill-rule:nonzero;stroke:none"
         id="path104" /><path
         d="m 1148.77,2.10938 h -20.8 V 95.293 h 20.8 V 74.2852 c 5.63,13.9375 16.12,23.457 32.07,22.7656 V 74.4531 h -1.21 c -18.18,0 -30.86,-12.1797 -30.86,-36.875 V 2.10938"
         style="fill:#100f0d;fill-opacity:1;fill-rule:nonzero;stroke:none"
         id="path106" /><path
         d="m 1237.63,17.4492 c 10.12,0 17.33,3.8906 24.53,11.125 l 12.19,-11.125 C 1265.78,6.86328 1253.93,0 1237.29,0 c -26.27,0 -46.5,19.5703 -46.5,48.5156 0,26.836 18.34,48.711 44.25,48.711 28.85,0 43.41,-23.293 43.41,-50.2852 0,-1.9609 -0.15,-3.7187 -0.32,-5.8281 h -66.59 c 2.41,-15.1758 12.7,-23.6641 26.09,-23.6641 z m 20.24,37.7774 c -1.38,13.7578 -9.26,24.5078 -22.99,24.5078 -12.71,0 -21.63,-10.0391 -23.49,-24.5078 h 46.48"
         style="fill:#100f0d;fill-opacity:1;fill-rule:nonzero;stroke:none"
         id="path108" /><path
         d="M 1354.82,2.10938 V 13.5859 c -6.17,-7.57809 -15.61,-13.42965 -29.35,-13.42965 -17.16,0 -32.26,10.07035 -32.26,28.76955 v 0.3515 c 0,20.1094 15.62,30 36.73,30 10.97,0 18.01,-1.582 25.06,-3.8789 v 2.2969 c 0,12.8906 -7.91,19.9414 -22.32,19.9414 -10.11,0 -17.68,-2.2851 -25.92,-5.8281 l -5.66,17.1172 c 9.96,4.582 19.74,7.7851 34.49,7.7851 26.78,0 39.8,-14.4843 39.8,-39.375 V 2.10938 Z m 0.52,39.53122 c -5.32,2.1094 -12.7,3.711 -20.77,3.711 -13.05,0 -20.76,-5.4766 -20.76,-15 v -0.3711 c 0,-8.8086 7.71,-13.75 17.5,-13.75 13.73,0 24.03,7.9179 24.03,19.5781 v 5.832"
         style="fill:#100f0d;fill-opacity:1;fill-rule:nonzero;stroke:none"
         id="path110" /><path
         d="m 1424.28,31.2227 c 0,-8.2852 4.13,-11.6524 11.16,-11.6524 4.64,0 8.76,1.0664 12.88,3.1836 V 5.28125 c -5.17,-2.99609 -11,-4.765625 -18.71,-4.765625 -15.29,0 -26.08,6.886715 -26.08,27.355475 v 49.0547 h -11.5 V 95.293 h 11.5 v 25.566 h 20.75 V 95.293 h 24.37 V 76.9258 h -24.37 V 31.2227"
         style="fill:#100f0d;fill-opacity:1;fill-rule:nonzero;stroke:none"
         id="path112" /><path
         d="m 1508.86,17.4492 c 10.13,0 17.34,3.8906 24.55,11.125 l 12.16,-11.125 C 1537,6.86328 1525.16,0 1508.53,0 c -26.26,0 -46.52,19.5703 -46.52,48.5156 0,26.836 18.36,48.711 44.28,48.711 28.82,0 43.42,-23.293 43.42,-50.2852 0,-1.9609 -0.19,-3.7187 -0.36,-5.8281 h -66.59 c 2.42,-15.1758 12.72,-23.6641 26.1,-23.6641 z m 20.26,37.7774 c -1.39,13.7578 -9.27,24.5078 -23,24.5078 -12.71,0 -21.63,-10.0391 -23.53,-24.5078 h 46.53"
         style="fill:#100f0d;fill-opacity:1;fill-rule:nonzero;stroke:none"
         id="path114" /><path
         d="M 1646.81,125.625 V 2.10938 H 1625.7 V 125.625 h 21.11"
         style="fill:#100f0d;fill-opacity:1;fill-rule:nonzero;stroke:none"
         id="path116" /><path
         d="m 1697.26,2.10938 h -20.78 V 95.293 h 20.78 V 80.8203 c 5.83,8.8203 14.22,16.4063 28.33,16.4063 20.39,0 32.25,-14.1289 32.25,-35.8399 V 2.10938 h -20.76 V 55.0508 c 0,14.4609 -7.06,22.7617 -19.4,22.7617 -12.03,0 -20.42,-8.6328 -20.42,-23.1172 V 2.10938"
         style="fill:#100f0d;fill-opacity:1;fill-rule:nonzero;stroke:none"
         id="path118" /><path
         d="m 1813.93,0.34375 c -12.88,0 -27.12,4.77344 -38.43,13.94145 l 9.26,14.4648 c 9.78,-7.5781 20.41,-11.4766 29.68,-11.4766 8.92,0 14.08,3.8985 14.08,10.0782 v 0.3437 c 0,7.2383 -9.61,9.707 -20.26,13.0664 -13.38,3.8672 -28.3,9.5196 -28.3,27.336 v 0.3711 c 0,17.6328 14.24,28.3945 32.26,28.3945 11.32,0 23.67,-4.0508 33.29,-10.5742 l -8.23,-15.1875 c -8.76,5.4804 -18.02,8.8398 -25.58,8.8398 -8.07,0 -12.7,-3.8867 -12.7,-9.3555 v -0.3593 c 0,-6.7032 9.8,-9.5352 20.43,-13.0469 13.22,-4.25 28.14,-10.4297 28.14,-27.1992 v -0.3399 c 0,-19.6015 -14.77,-29.29685 -33.64,-29.29685"
         style="fill:#100f0d;fill-opacity:1;fill-rule:nonzero;stroke:none"
         id="path120" /><path
         d="m 1892,31.2227 c 0,-8.2852 4.12,-11.6524 11.14,-11.6524 4.65,0 8.77,1.0664 12.89,3.1836 V 5.28125 c -5.15,-2.99609 -10.97,-4.765625 -18.7,-4.765625 -15.28,0 -26.07,6.886715 -26.07,27.355475 v 49.0547 h -11.52 V 95.293 h 11.52 v 25.566 H 1892 V 95.293 h 24.37 V 76.9258 H 1892 V 31.2227"
         style="fill:#100f0d;fill-opacity:1;fill-rule:nonzero;stroke:none"
         id="path122" /><path
         d="m 1937.64,109.57 v 20.293 h 22.3 V 109.57 Z M 1938.5,2.10938 V 95.293 h 20.76 V 2.10938 h -20.76"
         style="fill:#100f0d;fill-opacity:1;fill-rule:nonzero;stroke:none"
         id="path124" /><path
         d="m 2011.43,31.2227 c 0,-8.2852 4.12,-11.6524 11.15,-11.6524 4.65,0 8.77,1.0664 12.88,3.1836 V 5.28125 c -5.16,-2.99609 -10.98,-4.765625 -18.72,-4.765625 -15.26,0 -26.06,6.886715 -26.06,27.355475 v 49.0547 h -11.51 V 95.293 h 11.51 v 25.566 h 20.75 V 95.293 h 24.37 V 76.9258 h -24.37 V 31.2227"
         style="fill:#100f0d;fill-opacity:1;fill-rule:nonzero;stroke:none"
         id="path126" /><path
         d="m 2116.28,95.293 h 20.76 V 2.10938 h -20.76 V 16.582 c -5.86,-8.83981 -14.26,-16.42575 -28.31,-16.42575 -20.41,0 -32.29,14.12895 -32.29,35.83985 V 95.293 h 20.78 V 42.3359 c 0,-14.4648 7.04,-22.7656 19.4,-22.7656 12.01,0 20.42,8.6445 20.42,23.125 V 95.293"
         style="fill:#100f0d;fill-opacity:1;fill-rule:nonzero;stroke:none"
         id="path128" /><path
         d="m 2188.16,31.2227 c 0,-8.2852 4.11,-11.6524 11.16,-11.6524 4.61,0 8.73,1.0664 12.89,3.1836 V 5.28125 c -5.17,-2.99609 -11.02,-4.765625 -18.73,-4.765625 -15.27,0 -26.09,6.886715 -26.09,27.355475 V 76.9258 H 2155.9 V 95.293 h 11.49 v 25.566 h 20.77 V 95.293 h 24.37 V 76.9258 h -24.37 V 31.2227"
         style="fill:#100f0d;fill-opacity:1;fill-rule:nonzero;stroke:none"
         id="path130" /><path
         d="m 2272.73,17.4492 c 10.13,0 17.35,3.8906 24.56,11.125 l 12.16,-11.125 C 2300.87,6.86328 2289.01,0 2272.39,0 c -26.26,0 -46.51,19.5703 -46.51,48.5156 0,26.836 18.38,48.711 44.3,48.711 28.8,0 43.39,-23.293 43.39,-50.2852 0,-1.9609 -0.14,-3.7187 -0.33,-5.8281 h -66.58 c 2.4,-15.1758 12.68,-23.6641 26.07,-23.6641 z m 20.26,37.7774 c -1.39,13.7578 -9.28,24.5078 -23.02,24.5078 -12.67,0 -21.6,-10.0391 -23.47,-24.5078 h 46.49"
         style="fill:#100f0d;fill-opacity:1;fill-rule:nonzero;stroke:none"
         id="path132" /><path
         d="M 2435.06,94.5781 V 76.9258 h -23.69 V 2.10938 h -20.76 V 76.9258 h -11.5 v 17.8203 h 11.5 v 6.7069 c 0,20.488 9.94,30.527 27.8,30.527 7.2,0 12.18,-1.05 16.8,-2.468 v -17.989 c -4.12,1.415 -7.7,2.293 -12.17,2.293 -7.88,0 -12,-4.421 -12,-14.1207 v -5.1172 h 24.02"
         style="fill:#100f0d;fill-opacity:1;fill-rule:nonzero;stroke:none"
         id="path134" /><path
         d="m 2491.86,0 c -27.66,0 -48.07,21.6875 -48.07,48.3398 0,26.8165 20.59,48.8868 48.4,48.8868 27.8,0 48.25,-21.711 48.25,-48.5352 C 2540.44,22.0313 2519.81,0 2491.86,0 Z m 0,78.5156 c -16.66,0 -27.3,-13.4101 -27.3,-29.8242 0,-16.5742 11.5,-30.168 27.63,-30.168 16.81,0 27.46,13.418 27.46,29.8164 0,16.5938 -11.5,30.1758 -27.79,30.1758"
         style="fill:#100f0d;fill-opacity:1;fill-rule:nonzero;stroke:none"
         id="path136" /><path
         d="M 2582.27,2.10938 H 2561.5 V 95.293 h 20.77 V 74.2852 c 5.63,13.9375 16.13,23.457 32.09,22.7656 V 74.4531 h -1.19 c -18.21,0 -30.9,-12.1797 -30.9,-36.875 V 2.10938"
         style="fill:#100f0d;fill-opacity:1;fill-rule:nonzero;stroke:none"
         id="path138" /><path
         d="m 2779.61,94.0547 c 0,-15.1758 -8.23,-22.9531 -17.17,-27.6992 14.08,-4.9688 23.84,-13.2422 23.84,-30.1953 0,-22.2266 -17.67,-34.05082 -44.45,-34.05082 h -55.59 V 125.625 h 53.89 c 24.2,0 39.48,-12.148 39.48,-31.5703 z m -21.13,-3.5391 c 0,10.0504 -7.56,15.8794 -21.09,15.8794 h -30.37 V 73.5859 h 28.82 c 13.57,0 22.64,5.4688 22.64,16.9297 z m 6.7,-52.0468 c 0,10.5859 -8.08,16.7578 -24.71,16.7578 h -33.45 V 21.3398 h 35.03 c 14.38,0 23.13,5.8165 23.13,17.129"
         style="fill:#100f0d;fill-opacity:1;fill-rule:nonzero;stroke:none"
         id="path140" /><path
         d="m 2828.48,2.10938 h -20.75 V 95.293 h 20.75 V 74.2852 c 5.68,13.9375 16.15,23.457 32.11,22.7656 V 74.4531 h -1.23 c -18.18,0 -30.88,-12.1797 -30.88,-36.875 V 2.10938"
         style="fill:#100f0d;fill-opacity:1;fill-rule:nonzero;stroke:none"
         id="path142" /><path
         d="M 2929.71,2.10938 V 13.5859 c -6.19,-7.57809 -15.63,-13.42965 -29.35,-13.42965 -17.17,0 -32.27,10.07035 -32.27,28.76955 v 0.3515 c 0,20.1094 15.62,30 36.73,30 10.97,0 18.03,-1.582 25.06,-3.8789 v 2.2969 c 0,12.8906 -7.89,19.9414 -22.32,19.9414 -10.11,0 -17.68,-2.2851 -25.9,-5.8281 l -5.65,17.1172 c 9.95,4.582 19.7,7.7851 34.48,7.7851 26.78,0 39.81,-14.4843 39.81,-39.375 V 2.10938 Z m 0.52,39.53122 c -5.33,2.1094 -12.71,3.711 -20.77,3.711 -13.05,0 -20.77,-5.4766 -20.77,-15 v -0.3711 c 0,-8.8086 7.72,-13.75 17.51,-13.75 13.72,0 24.03,7.9179 24.03,19.5781 v 5.832"
         style="fill:#100f0d;fill-opacity:1;fill-rule:nonzero;stroke:none"
         id="path144" /><path
         d="m 2975.32,109.57 v 20.293 h 22.32 V 109.57 Z M 2976.19,2.10938 V 95.293 h 20.78 V 2.10938 h -20.78"
         style="fill:#100f0d;fill-opacity:1;fill-rule:nonzero;stroke:none"
         id="path146" /><path
         d="m 3044.84,2.10938 h -20.79 V 95.293 h 20.79 V 80.8203 c 5.82,8.8203 14.24,16.4063 28.3,16.4063 20.43,0 32.29,-14.1289 32.29,-35.8399 V 2.10938 h -20.78 V 55.0508 c 0,14.4609 -7.02,22.7617 -19.38,22.7617 -12.04,0 -20.43,-8.6328 -20.43,-23.1172 V 2.10938"
         style="fill:#100f0d;fill-opacity:1;fill-rule:nonzero;stroke:none"
         id="path148" /><path
         d="m 3261.39,2.10938 -29.51,43.07422 h -26.42 V 2.10938 h -21.12 V 125.625 h 53.53 c 27.64,0 44.63,-14.988 44.63,-39.1719 0,-20.4765 -11.86,-32.8203 -28.66,-37.5859 L 3286.26,2.10938 Z M 3236.18,105.879 h -30.72 V 64.3945 h 30.87 c 15.1,0 24.73,8.1172 24.73,20.8399 0,13.582 -9.28,20.6446 -24.88,20.6446"
         style="fill:#100f0d;fill-opacity:1;fill-rule:nonzero;stroke:none"
         id="path150" /><path
         d="m 3346.15,17.4492 c 10.12,0 17.33,3.8906 24.54,11.125 l 12.18,-11.125 C 3374.3,6.86328 3362.46,0 3345.81,0 c -26.28,0 -46.51,19.5703 -46.51,48.5156 0,26.836 18.36,48.711 44.29,48.711 28.8,0 43.39,-23.293 43.39,-50.2852 0,-1.9609 -0.14,-3.7187 -0.34,-5.8281 h -66.58 c 2.4,-15.1758 12.69,-23.6641 26.09,-23.6641 z m 20.24,37.7774 c -1.37,13.7578 -9.26,24.5078 -22.99,24.5078 -12.7,0 -21.63,-10.0391 -23.5,-24.5078 h 46.49"
         style="fill:#100f0d;fill-opacity:1;fill-rule:nonzero;stroke:none"
         id="path152" /><path
         d="m 3438.96,0.34375 c -12.87,0 -27.1,4.77344 -38.42,13.94145 l 9.25,14.4648 c 9.79,-7.5781 20.42,-11.4766 29.7,-11.4766 8.91,0 14.07,3.8985 14.07,10.0782 v 0.3437 c 0,7.2383 -9.6,9.707 -20.24,13.0664 -13.4,3.8672 -28.33,9.5196 -28.33,27.336 v 0.3711 c 0,17.6328 14.24,28.3945 32.28,28.3945 11.3,0 23.68,-4.0508 33.28,-10.5742 l -8.24,-15.1875 c -8.75,5.4804 -18.02,8.8398 -25.57,8.8398 -8.07,0 -12.7,-3.8867 -12.7,-9.3555 v -0.3593 c 0,-6.7032 9.79,-9.5352 20.42,-13.0469 13.2,-4.25 28.15,-10.4297 28.15,-27.1992 v -0.3399 c 0,-19.6015 -14.76,-29.29685 -33.65,-29.29685"
         style="fill:#100f0d;fill-opacity:1;fill-rule:nonzero;stroke:none"
         id="path154" /><path
         d="m 3535.58,17.4492 c 10.11,0 17.33,3.8906 24.56,11.125 l 12.16,-11.125 C 3563.72,6.86328 3551.88,0 3535.22,0 c -26.24,0 -46.49,19.5703 -46.49,48.5156 0,26.836 18.37,48.711 44.29,48.711 28.82,0 43.4,-23.293 43.4,-50.2852 0,-1.9609 -0.18,-3.7187 -0.35,-5.8281 h -66.58 c 2.39,-15.1758 12.7,-23.6641 26.09,-23.6641 z m 20.24,37.7774 c -1.38,13.7578 -9.26,24.5078 -23,24.5078 -12.69,0 -21.6,-10.0391 -23.5,-24.5078 h 46.5"
         style="fill:#100f0d;fill-opacity:1;fill-rule:nonzero;stroke:none"
         id="path156" /><path
         d="M 3652.77,2.10938 V 13.5859 c -6.17,-7.57809 -15.6,-13.42965 -29.35,-13.42965 -17.14,0 -32.26,10.07035 -32.26,28.76955 v 0.3515 c 0,20.1094 15.63,30 36.72,30 10.99,0 18.03,-1.582 25.05,-3.8789 v 2.2969 c 0,12.8906 -7.87,19.9414 -22.29,19.9414 -10.13,0 -17.65,-2.2851 -25.93,-5.8281 l -5.65,17.1172 c 9.95,4.582 19.75,7.7851 34.49,7.7851 26.77,0 39.82,-14.4843 39.82,-39.375 V 2.10938 Z m 0.51,39.53122 c -5.31,2.1094 -12.67,3.711 -20.75,3.711 -13.06,0 -20.78,-5.4766 -20.78,-15 v -0.3711 c 0,-8.8086 7.72,-13.75 17.51,-13.75 13.73,0 24.02,7.9179 24.02,19.5781 v 5.832"
         style="fill:#100f0d;fill-opacity:1;fill-rule:nonzero;stroke:none"
         id="path158" /><path
         d="m 3718.82,2.10938 h -20.74 V 95.293 h 20.74 V 74.2852 c 5.69,13.9375 16.15,23.457 32.1,22.7656 V 74.4531 h -1.21 c -18.17,0 -30.89,-12.1797 -30.89,-36.875 V 2.10938"
         style="fill:#100f0d;fill-opacity:1;fill-rule:nonzero;stroke:none"
         id="path160" /><path
         d="m 3807.71,0 c -26.95,0 -46.85,21.6875 -46.85,48.3398 0,26.6602 19.9,48.8868 47.01,48.8868 17.18,0 27.79,-6.5352 36.23,-16.0547 L 3831.21,66.875 c -6.37,6.8867 -13.06,11.6406 -23.5,11.6406 -15.1,0 -26.08,-13.4101 -26.08,-29.8242 0,-16.75 11.16,-30.168 27.09,-30.168 9.79,0 17,4.7461 23.53,11.6446 l 12.52,-12.7188 C 3835.84,7.22656 3825.37,0 3807.71,0"
         style="fill:#100f0d;fill-opacity:1;fill-rule:nonzero;stroke:none"
         id="path162" /><path
         d="M 3884.56,2.10938 H 3863.8 V 130.93 h 20.76 V 80.8203 c 5.85,8.8203 14.26,16.4063 28.33,16.4063 20.41,0 32.27,-14.1289 32.27,-35.8399 V 2.10938 h -20.77 V 55.0508 c 0,14.4609 -7.04,22.7617 -19.38,22.7617 -12.04,0 -20.45,-8.6328 -20.45,-23.1172 V 2.10938"
         style="fill:#100f0d;fill-opacity:1;fill-rule:nonzero;stroke:none"
         id="path164" /><path
         d="M 1201.63,731.063 V 253.879 h 149.22 v 477.566 z m -239.087,0 H 816.102 V 253.879 H 1148.91 V 364.617 H 962.543 Z M 2292.44,254.617 c -3.55,3.547 -6.83,10.024 -13.1,22.207 -3.69,7.129 -91.48,185.406 -91.48,185.406 53.61,19.247 83.19,64.606 83.19,129.278 0,93.488 -62.57,139.555 -187.01,139.555 h -233.1 V 253.879 h 145.1 v 180.84 h 50.16 c 0,0 60.47,-139.36 64.45,-147.5 3.61,-7.461 8.42,-16.184 21.12,-25.371 15.01,-10.871 35.34,-10.285 35.34,-10.285 l 124.51,-0.215 c 0,0 4.28,-0.188 0.82,3.269 z M 2065.5,535.785 h -69.46 v 93.496 h 67.38 c 39.85,0 59.81,-15.109 59.81,-46.718 0,-26.153 -21.97,-46.778 -57.73,-46.778 z M 1720.84,500.73 c 52.95,13.727 81.13,51.571 81.13,106.579 0,38.5 -15.15,72.179 -41.24,93.496 -33.01,27.492 -68.76,30.258 -114.87,30.258 h -231.69 v -476.52 c 0,0 117.69,-3.012 232.42,-0.664 114.72,2.371 167.07,46.094 167.07,132.723 0,61.871 -31.62,101.089 -92.82,114.128 z m -171.22,127.2 h 69.46 c 28.87,0 46.08,-14.422 46.08,-39.899 0,-25.414 -17.21,-39.883 -46.08,-39.883 h -69.46 z m 71.49,-268.86 h -71.49 v 87.321 h 71.49 c 32.34,0 51.59,-16.5 51.59,-43.981 0,-27.508 -19.25,-43.34 -51.59,-43.34"
         style="fill:#100f0d;fill-opacity:1;fill-rule:nonzero;stroke:none"
         id="path166" /></g></g></svg>
